<?xml version="1.0" standalone="no"?>
<!DOCTYPE svg PUBLIC "-//W3C//DTD SVG 20010904//EN"
 "http://www.w3.org/TR/2001/REC-SVG-20010904/DTD/svg10.dtd">
<svg version="1.0" xmlns="http://www.w3.org/2000/svg"
 width="1304.000000pt" height="1304.000000pt" viewBox="0 0 1304.000000 1304.000000"
 preserveAspectRatio="xMidYMid meet">
<metadata>
Created by potrace 1.14, written by Peter Selinger 2001-2017
</metadata>
<g transform="translate(0.000000,1304.000000) scale(0.100000,-0.100000)"
fill="#000000" stroke="none">
<path d="M3879 10696 c-2 -2 -35 -7 -74 -10 -38 -4 -90 -9 -115 -11 -72 -7
-163 -20 -208 -31 -13 -2 -43 -7 -65 -10 -23 -3 -67 -12 -98 -20 -31 -8 -69
-16 -85 -18 -16 -2 -36 -6 -44 -9 -18 -6 -71 -20 -85 -22 -5 -1 -30 -8 -55
-15 -25 -7 -49 -14 -55 -16 -48 -10 -344 -116 -425 -151 -25 -11 -65 -28 -90
-38 -52 -22 -321 -157 -365 -184 -16 -10 -52 -30 -80 -45 -27 -16 -57 -34 -66
-42 -8 -8 -19 -14 -23 -14 -4 0 -12 -5 -19 -10 -7 -6 -50 -36 -97 -67 -79 -52
-239 -169 -250 -183 -3 -3 -20 -16 -38 -29 -19 -13 -44 -33 -56 -45 -12 -11
-54 -48 -91 -81 -140 -122 -350 -340 -460 -480 -22 -27 -42 -52 -46 -55 -3 -3
-18 -23 -35 -45 -28 -39 -35 -47 -62 -79 -6 -8 -12 -19 -12 -25 0 -5 -4 -11
-8 -13 -5 -1 -44 -57 -88 -123 -82 -126 -91 -140 -138 -227 -16 -29 -31 -55
-35 -58 -6 -5 -73 -138 -145 -288 -19 -39 -37 -86 -41 -102 -4 -17 -11 -30
-16 -30 -5 0 -9 -6 -9 -13 0 -12 -11 -41 -55 -152 -4 -11 -9 -24 -11 -30 -1
-5 -16 -53 -34 -105 -17 -52 -33 -102 -35 -110 -3 -8 -16 -58 -30 -110 -29
-108 -28 -103 -55 -230 -12 -52 -23 -112 -25 -134 -3 -21 -7 -46 -9 -55 -5
-15 -13 -67 -21 -141 -2 -19 -8 -66 -12 -105 -10 -91 -10 -715 0 -825 9 -96
13 -132 21 -175 3 -16 8 -48 11 -70 11 -73 16 -99 30 -165 24 -113 43 -193 65
-270 11 -41 22 -84 25 -94 2 -11 21 -69 42 -130 20 -61 38 -113 38 -116 2 -5
13 -35 41 -105 32 -80 77 -182 111 -252 19 -40 34 -75 33 -79 -1 -4 2 -10 7
-13 4 -3 19 -30 33 -58 14 -29 28 -53 33 -53 4 0 7 -5 7 -11 0 -9 44 -90 83
-154 58 -93 123 -191 129 -193 5 -2 8 -10 8 -18 0 -8 5 -14 10 -14 6 0 10 -7
10 -15 0 -8 5 -15 10 -15 6 0 10 -4 10 -10 0 -5 6 -18 14 -27 8 -10 50 -63 93
-119 116 -149 172 -213 338 -379 165 -165 266 -255 384 -345 19 -14 42 -33 52
-43 11 -9 21 -17 23 -17 5 0 149 -101 176 -124 16 -12 116 -73 151 -91 10 -5
19 -13 19 -17 0 -5 4 -8 9 -8 5 0 47 -22 93 -48 102 -59 415 -212 433 -212 3
0 24 -9 48 -19 59 -27 170 -66 180 -63 4 1 7 -2 7 -8 0 -5 10 -10 23 -10 13 0
27 -4 32 -9 6 -4 33 -14 60 -20 28 -7 59 -17 70 -22 24 -10 276 -75 325 -83
19 -3 46 -8 60 -11 68 -16 82 -18 165 -31 22 -3 47 -7 55 -8 8 -2 47 -6 85
-10 39 -4 81 -10 95 -12 130 -23 681 -23 850 0 14 2 54 7 90 11 36 4 74 9 85
10 11 2 38 6 61 10 60 9 97 15 114 20 8 3 35 7 59 10 24 3 52 10 62 16 11 5
19 8 19 6 0 -3 26 2 58 10 31 7 65 16 74 18 87 20 355 104 412 129 17 8 47 19
66 26 19 7 54 21 77 31 24 11 45 19 48 19 2 0 37 16 76 35 40 19 77 35 83 35
6 0 22 9 36 21 l25 20 -34 27 c-149 118 -347 297 -460 416 -25 26 -71 75 -102
107 -31 33 -55 59 -52 59 2 0 -6 10 -19 23 -13 13 -39 43 -58 66 -19 23 -43
52 -53 64 -21 25 -36 44 -112 145 -71 93 -235 338 -235 351 0 5 -4 11 -8 13
-10 4 -92 146 -92 159 0 5 -5 9 -12 9 -6 0 -8 3 -5 6 4 4 -2 19 -11 33 -17 24
-146 280 -148 291 0 3 -10 28 -23 55 -28 62 -35 77 -60 143 -12 28 -30 75 -42
103 -11 28 -22 59 -24 68 -2 9 -20 63 -40 121 -19 58 -45 141 -56 185 -11 44
-23 87 -26 95 -4 8 -8 26 -10 40 -2 14 -8 36 -13 50 -4 14 -12 43 -16 65 -4
22 -9 47 -11 55 -2 8 -5 24 -7 35 -9 50 -17 94 -26 140 -5 28 -12 69 -15 92
-3 23 -8 57 -10 75 -3 18 -7 58 -10 88 -3 30 -8 69 -10 85 -18 123 -24 578
-12 765 9 119 22 250 32 300 2 9 7 41 11 71 4 30 8 63 10 74 1 11 3 20 4 20 1
0 3 15 6 33 7 58 55 279 74 347 10 36 19 68 19 70 4 45 115 376 183 540 80
197 134 306 289 590 12 22 24 42 28 45 3 3 11 14 17 25 27 49 42 74 92 147 28
43 52 80 52 84 0 3 6 11 13 18 6 7 21 25 32 41 57 80 151 202 167 218 10 10
18 21 18 25 0 4 19 27 41 52 22 25 66 74 97 110 113 129 357 364 482 466 19
16 37 31 40 34 3 3 33 28 67 54 35 27 60 53 57 57 -3 5 -44 27 -92 50 -144 68
-285 129 -298 129 -5 0 -22 7 -38 15 -16 9 -39 17 -50 20 -12 2 -22 4 -23 6
-2 1 -6 2 -10 3 -5 1 -12 4 -18 8 -5 3 -26 11 -45 16 -19 6 -66 20 -105 32
-131 40 -337 92 -420 105 -16 3 -41 7 -55 10 -46 11 -65 14 -105 19 -22 3 -58
8 -80 11 -22 3 -60 8 -85 11 -25 3 -61 7 -80 10 -42 6 -685 15 -691 10z"/>
<path d="M8735 10602 c-2 -2 -41 -6 -87 -9 -129 -8 -163 -10 -163 -13 0 -1
-16 -3 -35 -5 -50 -5 -121 -14 -150 -19 -14 -3 -45 -8 -70 -11 -48 -6 -91 -16
-300 -66 -74 -17 -141 -36 -147 -42 -7 -5 -13 -7 -13 -4 0 3 -26 -3 -57 -14
-32 -11 -62 -22 -68 -23 -22 -5 -91 -28 -110 -37 -11 -5 -49 -20 -85 -33 -36
-13 -83 -32 -105 -42 -22 -10 -42 -18 -45 -19 -15 -5 -71 -29 -113 -51 -27
-13 -55 -24 -63 -24 -8 0 -14 -4 -14 -9 0 -4 -21 -18 -47 -29 -66 -29 -165
-84 -181 -99 -7 -7 -24 -16 -38 -19 -13 -3 -24 -10 -24 -15 0 -5 -4 -9 -10 -9
-5 0 -35 -17 -66 -37 -94 -63 -108 -70 -126 -65 -10 2 -18 -1 -18 -7 0 -6 -5
-11 -10 -11 -6 0 -16 -5 -23 -10 -7 -6 -52 -40 -102 -77 -49 -37 -94 -71 -100
-75 -42 -34 -59 -49 -111 -93 -368 -316 -685 -701 -919 -1120 -74 -132 -183
-362 -224 -470 -12 -33 -27 -68 -33 -79 -5 -10 -11 -26 -13 -35 -2 -9 -15 -46
-28 -82 -23 -62 -91 -286 -102 -336 -3 -13 -7 -31 -9 -40 -20 -85 -47 -211
-52 -241 -2 -20 -9 -59 -14 -87 -10 -58 -18 -116 -26 -200 -3 -33 -8 -76 -11
-95 -8 -47 -12 -652 -5 -665 3 -5 7 -28 8 -51 5 -76 17 -170 35 -284 11 -65
12 -74 24 -140 11 -60 65 -281 87 -355 11 -38 21 -74 22 -80 1 -5 4 -14 8 -20
3 -5 13 -32 21 -60 18 -62 82 -233 112 -300 32 -73 38 -89 37 -97 -1 -5 3 -8
8 -8 6 0 10 -5 10 -12 0 -16 99 -209 173 -338 64 -111 169 -275 225 -350 19
-25 43 -58 55 -74 18 -24 98 -124 172 -214 48 -59 262 -278 335 -342 34 -30
74 -67 90 -81 16 -14 45 -39 66 -55 20 -16 42 -34 48 -39 6 -6 38 -31 71 -55
33 -25 62 -47 65 -51 14 -16 97 -66 110 -66 8 0 74 -38 145 -83 158 -101 474
-265 630 -326 190 -74 452 -161 497 -164 4 -1 23 -7 42 -15 18 -8 36 -12 39
-9 3 3 12 2 19 -2 7 -5 20 -10 28 -12 8 -1 24 -5 35 -7 11 -2 31 -6 45 -8 14
-3 59 -12 100 -20 41 -8 82 -15 90 -15 8 0 29 -2 45 -6 67 -13 93 -17 245 -32
116 -12 525 -23 525 -14 0 0 38 3 85 6 125 7 179 11 240 20 30 4 67 8 83 8 15
1 27 5 27 9 0 5 4 6 9 3 5 -3 44 1 88 9 43 8 94 17 113 20 19 3 43 8 52 11 9
3 27 7 40 10 13 3 32 7 43 9 11 3 29 7 40 9 36 7 209 56 235 66 14 6 34 12 45
14 11 2 58 18 105 36 47 17 90 33 95 34 82 23 556 247 563 267 2 5 9 9 15 9 7
0 40 18 75 40 34 22 67 40 72 40 6 0 10 5 10 10 0 6 4 10 9 10 14 0 270 176
291 199 3 3 34 28 70 55 167 127 496 449 603 591 4 5 17 21 28 35 12 14 33 41
48 60 14 19 28 37 31 40 3 3 17 21 30 40 13 19 29 40 35 46 6 6 31 42 55 80
25 38 48 71 52 72 5 2 8 10 8 18 0 8 5 14 10 14 6 0 10 5 10 10 0 6 23 47 50
91 28 44 50 85 50 90 0 5 5 9 10 9 6 0 10 9 10 20 0 11 3 20 8 20 4 0 23 33
42 73 19 39 38 74 43 75 4 2 7 9 7 16 0 6 13 37 30 69 16 31 30 59 30 62 0 3
7 22 16 43 27 61 105 256 108 267 1 6 19 62 39 125 32 105 73 245 82 288 21
95 45 213 49 237 2 17 8 50 12 75 4 25 8 54 10 65 1 11 5 34 8 50 2 17 7 59
10 95 4 36 9 90 12 120 8 74 9 516 1 610 -7 83 -14 152 -23 220 -4 25 -8 62
-9 82 -2 21 -6 42 -9 47 -3 5 -8 29 -11 53 -2 23 -7 54 -10 68 -3 14 -8 36
-10 50 -6 36 -13 69 -21 92 -3 11 -7 30 -9 41 -2 12 -19 78 -39 147 -20 69
-38 132 -40 140 -2 8 -11 35 -20 60 -9 25 -18 52 -20 60 -4 16 -33 93 -47 125
-4 11 -26 63 -47 115 -48 115 -110 244 -175 365 -57 103 -198 333 -237 385
-15 19 -52 69 -82 110 -151 205 -387 461 -568 617 -24 21 -52 46 -62 56 -10 9
-21 17 -24 17 -4 0 -12 6 -18 14 -17 21 -263 206 -274 206 -6 0 -12 4 -14 8
-4 12 -95 72 -107 72 -6 0 -11 5 -11 10 0 6 -7 10 -15 10 -8 0 -15 5 -15 10 0
6 -5 10 -10 10 -6 0 -29 12 -53 27 -23 15 -51 33 -62 39 -11 6 -38 21 -60 34
-51 29 -235 121 -297 149 -27 11 -67 30 -90 40 -145 64 -541 195 -613 202 -2
0 -19 5 -37 10 -18 6 -44 12 -58 15 -14 2 -37 7 -52 10 -15 3 -30 5 -33 5 -2
0 -19 5 -37 10 -18 5 -57 12 -87 15 -30 3 -59 8 -63 10 -5 3 -26 7 -46 9 -46
5 -127 14 -168 20 -92 13 -599 27 -609 17z m510 -586 c161 -17 251 -30 365
-52 14 -3 39 -8 55 -10 56 -11 258 -65 277 -75 10 -5 18 -7 18 -5 0 9 191 -60
340 -122 88 -36 289 -134 350 -170 19 -11 53 -30 74 -42 40 -22 229 -143 250
-161 6 -5 43 -33 81 -61 39 -28 72 -54 75 -58 3 -3 14 -13 26 -21 63 -43 307
-276 414 -395 123 -135 380 -490 380 -523 0 -6 5 -11 10 -11 6 0 10 -7 10 -15
0 -8 3 -15 8 -15 4 0 12 -10 18 -23 6 -12 45 -89 87 -172 71 -140 179 -394
180 -422 0 -7 5 -13 10 -13 6 0 8 -3 4 -6 -3 -3 1 -25 10 -47 8 -23 16 -51 19
-62 2 -11 8 -31 14 -45 5 -14 14 -45 20 -70 6 -25 13 -53 15 -62 3 -10 7 -28
10 -40 2 -13 9 -43 15 -68 22 -101 48 -247 55 -320 4 -30 8 -68 10 -85 24
-196 19 -589 -9 -780 -6 -39 -9 -56 -22 -139 -3 -21 -7 -50 -9 -65 -2 -14 -4
-26 -5 -26 -1 0 -3 -11 -6 -25 -20 -121 -137 -519 -173 -595 -6 -11 -22 -49
-36 -85 -36 -89 -147 -314 -157 -318 -4 -2 -8 -9 -8 -16 0 -26 -254 -416 -271
-416 -5 0 -9 -7 -9 -15 0 -8 -4 -15 -10 -15 -5 0 -10 -6 -10 -14 0 -8 -3 -16
-7 -18 -5 -1 -28 -28 -53 -58 -162 -200 -410 -435 -621 -590 -41 -30 -78 -58
-84 -63 -49 -37 -261 -168 -320 -197 -16 -8 -32 -17 -35 -20 -5 -5 -181 -93
-190 -95 -3 0 -9 -3 -15 -7 -38 -23 -258 -107 -395 -149 -52 -16 -117 -37
-144 -45 -26 -8 -51 -13 -54 -10 -3 3 -10 2 -16 -3 -11 -9 -166 -45 -241 -55
-23 -4 -52 -9 -65 -11 -23 -5 -53 -9 -140 -20 -146 -19 -514 -26 -685 -12 -44
3 -80 7 -80 7 0 1 -16 3 -35 5 -79 6 -154 16 -161 20 -4 3 -25 7 -48 10 -22 3
-73 12 -113 21 -40 9 -91 20 -113 25 -22 4 -71 18 -110 29 -38 12 -79 23 -89
25 -10 3 -35 10 -55 17 -20 7 -38 13 -41 13 -3 1 -14 5 -25 9 -11 5 -63 24
-115 43 -142 53 -360 153 -360 165 0 4 -6 8 -12 8 -13 0 -34 10 -103 50 -22
13 -57 32 -77 43 -21 12 -38 24 -38 29 0 4 35 43 78 87 120 124 182 192 182
201 0 5 4 10 9 12 5 2 44 46 86 98 42 52 83 103 91 113 8 9 14 20 14 23 0 3 7
12 15 20 7 8 40 54 72 102 32 48 60 89 63 92 7 7 22 33 62 103 18 31 36 57 40
57 5 0 8 9 8 20 0 11 4 20 9 20 5 0 14 15 22 33 7 17 16 34 19 37 13 11 151
300 195 410 44 107 111 289 112 300 0 3 11 37 23 75 12 39 23 78 26 88 2 9 6
25 9 35 6 23 36 143 40 162 2 8 4 15 5 15 1 0 3 9 5 20 2 11 7 36 11 55 4 19
8 44 10 55 1 11 5 31 9 45 3 14 8 43 10 65 3 22 7 51 10 65 3 14 7 45 10 70 3
25 8 60 10 78 7 47 15 155 20 244 2 42 6 82 10 87 3 6 1 11 -5 11 -6 0 -8 5
-5 10 5 8 6 59 4 153 -1 6 0 23 1 37 2 32 -8 218 -14 273 -3 23 -8 74 -11 112
-3 39 -10 93 -15 120 -6 28 -12 66 -14 85 -6 44 -16 106 -22 134 -3 11 -7 32
-10 46 -3 14 -7 33 -10 42 -3 10 -7 30 -10 45 -4 27 -13 66 -20 88 -2 6 -9 33
-16 62 -7 28 -16 55 -21 59 -4 4 -7 17 -7 28 0 12 -14 59 -31 106 -16 47 -31
90 -33 95 -5 23 -29 92 -41 120 -7 17 -32 77 -56 135 -44 108 -199 422 -222
449 -7 9 -19 29 -27 46 -31 63 -220 345 -232 345 -4 0 -8 6 -8 13 0 7 -10 23
-22 37 -13 14 -42 50 -65 80 -23 30 -54 69 -68 85 -72 83 -147 166 -210 231
-67 69 -80 94 -49 94 8 0 14 4 14 8 0 4 15 15 33 23 17 9 79 41 137 72 91 48
152 77 305 141 17 7 46 19 65 26 19 6 44 16 55 20 37 14 196 66 235 76 8 2 51
13 95 24 44 12 89 23 100 25 11 3 34 8 50 11 17 4 39 8 50 10 11 2 29 5 40 7
68 15 199 32 325 43 41 3 77 8 78 9 6 6 474 -3 537 -9z"/>
</g>
</svg>
