<svg xmlns="http://www.w3.org/2000/svg" viewBox="0 0 163.49 104.82" fill="white"><g id="Layer_2" data-name="Layer 2"><g id="Graphic_Elements" data-name="Graphic Elements"><path d="M60.29,52.65A51.71,51.71,0,0,0,82.64,95.2,52.38,52.38,0,0,0,83,9.85,51.73,51.73,0,0,0,60.29,52.65Z"/><path d="M53.07,52.65A58.87,58.87,0,0,1,76.32,5.78a52.41,52.41,0,1,0-23.91,99A52.12,52.12,0,0,0,76,99.23,58.88,58.88,0,0,1,53.07,52.65Z"/><path d="M112,104.11a51.46,51.46,0,1,1,51.46-51.46A51.52,51.52,0,0,1,112,104.11ZM112,8.4a44.25,44.25,0,1,0,44.25,44.25A44.3,44.3,0,0,0,112,8.4Z"/></g></g></svg>