<?xml version="1.0" encoding="UTF-8"?>
<svg id="Layer_1" data-name="Layer 1" xmlns="http://www.w3.org/2000/svg" viewBox="0 0 364.96 219.5">
  <defs>
    <style>
      .cls-1 {
        fill: #fff;
      }
    </style>
  </defs>
  <path class="cls-1" d="m21.89,215.31h0c-19.55-9.78-27.48-33.55-17.7-53.11L74.34,21.89C84.12,2.34,107.9-5.59,127.45,4.19h0c19.55,9.78,27.48,33.55,17.7,53.11l-70.16,140.31c-9.78,19.55-33.55,27.48-53.11,17.7Zm178.46-17.7l70.16-140.31c9.78-19.55,1.85-43.33-17.7-53.11h0c-19.55-9.78-43.33-1.85-53.11,17.7l-70.16,140.31c-9.78,19.55-1.85,43.33,17.7,53.11h0c19.55,9.78,43.33,1.85,53.11-17.7Zm111.83-87.86c-29.15,0-52.78,23.63-52.78,52.78s23.63,52.78,52.78,52.78,52.78-23.63,52.78-52.78-23.63-52.78-52.78-52.78Z"/>
</svg>